<?xml version="1.0" encoding="iso-8859-1"?>
<!-- Generator: Adobe Illustrator 19.0.0, SVG Export Plug-In . SVG Version: 6.00 Build 0)  -->
<svg version="1.1" id="Layer_1" xmlns="http://www.w3.org/2000/svg" xmlns:xlink="http://www.w3.org/1999/xlink" x="0px" y="0px"
	 viewBox="0 0 512.003 512.003" style="enable-background:new 0 0 512.003 512.003;" xml:space="preserve">
<polygon style="fill:#FFA91F;" points="500.619,184.303 421.578,105.264 382.64,162.444 443.438,223.243 "/>
<path style="fill:#78DDCA;" d="M404.27,284.122c-15.189,15.189-23.623,35.739-23.623,57.022c0,2.401,0.112,4.802,0.326,7.213
	c1.577,17.57-2.665,34.997-11.791,49.707c-11.649-2.299-22.677-8.464-30.978-18.485h-0.01c-21.578,26.024-61.498,26.024-83.076,0
	c-10.804,13.012-26.166,19.513-41.538,19.513c-15.382,0-30.754-6.501-41.538-19.523l-0.01,0.01
	c-19.187,23.145-52.871,25.708-75.273,7.701c-2.788-2.248-5.412-4.812-7.803-7.701c-11.618,13.999-28.537,20.469-45.048,19.401
	c0.397-0.478,0.834-0.946,1.282-1.394l148.736-148.736c15.199-15.199,35.749-23.623,57.053-23.623c2.381,0,4.782,0.102,7.182,0.315
	c23.816,2.136,47.337-6.399,64.245-23.297l36.197-36.207l2.503,2.503l17.183,17.183l59.688,59.688l2.503,2.503L404.27,284.122z"/>
<g>
	<path style="fill:#A8F4E6;" d="M378.287,185.725c0,0-25.515,39.951-114.37,60.969c-56.829,13.439-125.235,88.336-167.16,140.587
		c-2.788-2.248-5.412-4.812-7.803-7.701c-11.618,13.999-28.537,20.469-45.048,19.401c0.397-0.478,0.834-0.946,1.282-1.394
		l148.736-148.736c15.199-15.199,35.749-23.623,57.053-23.623c2.381,0,4.782,0.102,7.182,0.315
		c23.816,2.136,47.337-6.399,64.245-23.297l36.197-36.207l2.503,2.503L378.287,185.725z"/>
	<path style="fill:#A8F4E6;" d="M473.216,210.181l-76.878-76.877c-9.73-9.73-25.506-9.73-35.237,0l0,0
		c-9.73,9.73-9.73,25.506,0,35.237l76.878,76.878c9.73,9.73,25.506,9.73,35.237,0l0,0
		C482.946,235.688,482.946,219.912,473.216,210.181z"/>
</g>
<polygon style="fill:#E2901A;" points="468.923,205.886 443.438,223.243 382.642,162.447 399.997,136.961 "/>
<path style="fill:#A8F4E6;" d="M172.031,379.57v0.01c-4.751,5.728-10.387,10.204-16.532,13.409L313.32,235.168
	c-4.72,4.72-7.091,10.906-7.091,17.091c0,6.196,2.37,12.381,7.091,17.102l23.836,23.836c9.441,9.451,24.752,9.451,34.193,0
	l-99.761,99.761c-6.124-3.205-11.74-7.671-16.471-13.378l-0.01-0.01c-21.568,26.034-61.498,26.034-83.066,0H172.031z"/>
<path style="fill:#5FC1B0;" d="M371.354,259.002l-23.836-23.836c-9.444-9.444-24.756-9.444-34.2,0l0,0
	c-9.444,9.444-9.444,24.756,0,34.2l23.836,23.836c9.444,9.444,24.756,9.444,34.2,0l0,0
	C380.798,283.758,380.798,268.446,371.354,259.002z"/>
<path style="fill:#71B4E0;" d="M462.827,406.739c-15.534,0-30.273-5.793-41.551-16.124c-11.287,10.333-26.018,16.118-41.54,16.118
	c-15.528,0-30.263-5.789-41.539-16.114c-11.253,10.31-26.003,16.112-41.545,16.112c-0.001,0,0.001,0,0,0
	c-15.53,0-30.265-5.79-41.541-16.116c-11.275,10.323-26.009,16.112-41.536,16.112s-30.26-5.787-41.535-16.109
	c-11.254,10.312-26.002,16.112-41.546,16.112c-15.53,0-30.266-5.79-41.541-16.116c-11.275,10.324-26.01,16.112-41.538,16.112
	c-18.394,0-35.674-8.122-47.412-22.285l11.749-9.739c8.829,10.654,21.828,16.764,35.663,16.764c13.836,0,26.833-6.109,35.662-16.763
	c0.152-0.183,0.312-0.359,0.48-0.527c1.509-1.509,3.587-2.326,5.713-2.229c2.132,0.089,4.13,1.065,5.509,2.694
	c8.883,10.719,21.881,16.828,35.716,16.828s26.832-6.109,35.661-16.761c1.37-1.653,3.377-2.656,5.521-2.756
	c2.15-0.101,4.236,0.705,5.754,2.224c0.168,0.168,0.33,0.346,0.481,0.529c8.829,10.653,21.828,16.763,35.663,16.762
	c13.835-0.001,26.833-6.11,35.662-16.764c1.447-1.746,3.596-2.758,5.865-2.761c0.003,0,0.007,0,0.01,0
	c2.265,0,4.411,1.005,5.862,2.746c8.846,10.674,21.844,16.783,35.679,16.783s26.832-6.109,35.661-16.761
	c1.443-1.741,3.586-2.755,5.848-2.764c0.01,0,0.02,0,0.029,0c2.25,0,4.389,0.991,5.84,2.712
	c8.874,10.707,21.872,16.816,35.707,16.816s26.832-6.109,35.661-16.762c1.435-1.732,3.566-2.746,5.815-2.765
	c2.275,0.007,4.396,0.952,5.86,2.66c0.027,0.032,0.069,0.081,0.097,0.114c8.827,10.651,21.825,16.759,35.659,16.759
	s26.83-6.108,35.658-16.759c0.026-0.033,0.054-0.064,0.081-0.097c2.743-3.2,7.567-3.58,10.767-0.836
	c3.187,2.733,3.575,7.514,0.867,10.714C498.462,398.635,481.2,406.739,462.827,406.739z"/>
<g>
</g>
<g>
</g>
<g>
</g>
<g>
</g>
<g>
</g>
<g>
</g>
<g>
</g>
<g>
</g>
<g>
</g>
<g>
</g>
<g>
</g>
<g>
</g>
<g>
</g>
<g>
</g>
<g>
</g>
</svg>
