<?xml version="1.0" encoding="iso-8859-1"?>
<!-- Generator: Adobe Illustrator 19.0.0, SVG Export Plug-In . SVG Version: 6.00 Build 0)  -->
<svg version="1.1" id="Capa_1" xmlns="http://www.w3.org/2000/svg" xmlns:xlink="http://www.w3.org/1999/xlink" x="0px" y="0px"
	 viewBox="0 0 512.001 512.001" style="enable-background:new 0 0 512.001 512.001;" xml:space="preserve">
<path style="fill:#E0B629;" d="M41.771,43.177c-3.693,18.41,2.951,38.17,18.817,50.428s36.663,13.699,53.546,5.48
	c3.693-18.41-2.951-38.17-18.817-50.428S58.654,34.957,41.771,43.177z"/>
<path style="fill:#FADC60;" d="M24.455,116.964c11.463,14.873,30.729,22.834,50.392,18.914s34.404-18.661,39.287-36.793
	c-11.463-14.873-30.73-22.834-50.392-18.914C44.079,84.092,29.338,98.832,24.455,116.964z"/>
<path style="fill:#C86D5C;" d="M76.354,474.84c-8.749,0-16.995-1.544-24.324-4.589c-11.49-4.776-20.079-12.967-24.839-23.686
	c-4.823-10.864-5.354-23.902-1.533-37.706c2.311-8.35,10.947-13.247,19.301-10.932c8.349,2.311,13.244,10.952,10.932,19.3
	c-5.128,18.526,4.887,22.689,8.178,24.056c18.324,7.621,56.358-4.052,80.117-45.763c4.288-7.526,13.867-10.152,21.393-5.866
	c7.528,4.288,10.153,13.865,5.866,21.394C146.82,454.281,108.267,474.84,76.354,474.84z"/>
<path style="fill:#3A484A;" d="M162.166,495.492c0.127-0.075,0.255-0.148,0.384-0.221c7.966-4.481,13.656-12.105,15.116-21.127
	c0.275-1.698,0.551-3.268,0.818-4.571l23.663-15.225l19.22,15.225c-1.782,6.943-3.257,14.371-4.101,21.987
	c-1.289,11.632-11.109,20.437-22.812,20.437h-19.608v0.004h-8.114C157.719,512,154.399,500.065,162.166,495.492z"/>
<path style="fill:#C86D5C;" d="M178.495,469.573h42.873c6.222-24.134,16.187-42.475,16.334-42.758
	c5.563-10.101,1.903-22.816-8.198-28.401c-10.091-5.573-22.796-1.945-28.39,8.135C200.255,408.119,185.595,434.878,178.495,469.573z
	"/>
<path style="fill:#B35948;" d="M229.503,398.414c-10.091-5.573-22.796-1.945-28.39,8.135c-0.689,1.261-10.303,18.818-17.735,43.686
	c11.773,7.346,24.822,12.963,38.756,16.468c6.24-22.702,15.426-39.618,15.566-39.889
	C243.264,416.713,239.604,403.998,229.503,398.414z"/>
<path style="fill:#3A484A;" d="M349.835,495.492c-0.127-0.075-0.255-0.148-0.384-0.221c-7.966-4.481-13.656-12.105-15.116-21.127
	c-0.275-1.698-0.551-3.268-0.818-4.571l-23.663-15.225l-19.22,15.225c1.782,6.943,3.257,14.371,4.101,21.987
	c1.289,11.632,11.109,20.437,22.812,20.437h19.608v0.004h8.114C354.282,512,357.602,500.065,349.835,495.492z"/>
<path style="fill:#C86D5C;" d="M333.506,469.573h-42.873c-6.222-24.134-16.187-42.475-16.334-42.758
	c-5.563-10.101-1.903-22.816,8.198-28.401c10.091-5.573,22.796-1.945,28.39,8.135C311.746,408.119,326.406,434.878,333.506,469.573z
	"/>
<path style="fill:#B35948;" d="M282.498,398.414c10.091-5.573,22.796-1.945,28.39,8.135c0.689,1.261,10.303,18.818,17.735,43.686
	c-11.773,7.346-24.822,12.963-38.756,16.468c-6.24-22.702-15.426-39.618-15.566-39.889
	C268.737,416.713,272.397,403.998,282.498,398.414z"/>
<ellipse style="fill:#C86D5C;" cx="256.001" cy="342.988" rx="107.705" ry="102.142"/>
<g>
	<path style="fill:#FBC4AC;" d="M441.096,323.585c-8.795-1.683-17.704-2.489-26.424-2.645l-15.414,22.054l17.933,19.857
		c5.385,0.23,10.781,0.806,16.062,1.819c11.345,2.175,22.304-5.27,24.469-16.616C459.887,336.708,452.442,325.75,441.096,323.585z"
		/>
	<path style="fill:#FBC4AC;" d="M70.905,323.585c8.795-1.683,17.704-2.489,26.424-2.645l15.414,22.054L94.809,362.85
		c-5.385,0.23-10.781,0.806-16.062,1.819c-11.345,2.175-22.304-5.27-24.469-16.616C52.114,336.708,59.559,325.75,70.905,323.585z"/>
</g>
<g>
	<path style="fill:#C86D5C;" d="M417.192,362.85c-35.627-1.631-70.771,11.429-71.179,11.576c-2.426,0.92-4.925,1.36-7.382,1.36
		c-8.438,0-16.396-5.145-19.565-13.499c-4.089-10.791,1.307-22.848,12.088-26.958c1.945-0.743,40.604-15.225,83.519-14.389
		C416.607,330.979,418.154,345.116,417.192,362.85z"/>
	<path style="fill:#C86D5C;" d="M94.809,362.85c35.627-1.631,70.771,11.429,71.179,11.576c2.426,0.92,4.925,1.36,7.382,1.36
		c8.438,0,16.396-5.145,19.565-13.499c4.089-10.791-1.307-22.848-12.088-26.958c-1.945-0.743-40.604-15.225-83.519-14.389
		C95.394,330.979,93.847,345.116,94.809,362.85z"/>
</g>
<path style="fill:#F2C42C;" d="M96.409,106.869C122.238,44.148,183.964,0,256.001,0s133.763,44.148,159.592,106.869H96.409z"/>
<circle style="fill:#B35948;" cx="428.535" cy="193.447" r="66.924"/>
<circle style="fill:#FBC4AC;" cx="428.535" cy="193.447" r="33.461"/>
<circle style="fill:#B35948;" cx="83.466" cy="193.447" r="66.924"/>
<g>
	<circle style="fill:#FBC4AC;" cx="83.466" cy="193.447" r="33.461"/>
	<path style="fill:#FBC4AC;" d="M256.001,414.09c-41.226,0-74.766-30.96-74.766-69.015s33.54-69.015,74.766-69.015
		c41.226,0,74.766,30.96,74.766,69.015S297.226,414.09,256.001,414.09z"/>
</g>
<g>
	<path style="fill:#B35948;" d="M192.936,362.286c4.089-10.791-1.307-22.848-12.088-26.958
		c-1.637-0.624-29.272-10.977-63.561-13.746c-4.724,13.48-7.924,27.852-10.089,41.259c30.96,1.255,58.43,11.455,58.79,11.584
		c2.426,0.92,4.925,1.36,7.382,1.36C181.81,375.785,189.767,370.641,192.936,362.286z"/>
	<path style="fill:#B35948;" d="M319.065,362.286c-4.089-10.791,1.307-22.848,12.088-26.958
		c1.637-0.624,29.272-10.977,63.561-13.746c4.724,13.48,7.924,27.852,10.089,41.259c-30.96,1.255-58.43,11.455-58.79,11.584
		c-2.426,0.92-4.925,1.36-7.382,1.36C330.191,375.785,322.234,370.641,319.065,362.286z"/>
</g>
<path style="fill:#E3B098;" d="M256.001,276.06c-41.226,0-74.766,30.96-74.766,69.015c0,6.089,0.868,11.994,2.48,17.623
	c22.474,8.572,46.839,13.282,72.287,13.282c25.448,0,49.812-4.71,72.286-13.282c1.612-5.629,2.48-11.534,2.48-17.623
	C330.767,307.02,297.226,276.06,256.001,276.06z"/>
<g>
	<path style="fill:#F2C42C;" d="M223.665,342.038c0,0-5.309,51.66-4.263,74.665h-90.974c0,0-0.018-70.324,22.639-107.194
		L223.665,342.038z"/>
	<path style="fill:#F2C42C;" d="M288.336,342.038c0,0,5.309,51.66,4.263,74.665h90.974c0,0,0.018-70.324-22.639-107.194
		L288.336,342.038z"/>
</g>
<g>
	<path style="fill:#E0B629;" d="M360.935,309.509l-72.598,32.529c0,0,1.453,14.138,2.689,30.916
		c30.171-5.257,58.08-17.18,82.148-34.197C370.094,328.087,366.106,317.925,360.935,309.509z"/>
	<path style="fill:#E0B629;" d="M138.829,338.757c24.068,17.017,51.977,28.939,82.148,34.197
		c1.236-16.777,2.689-30.915,2.689-30.915l-72.598-32.529C145.895,317.925,141.907,328.087,138.829,338.757z"/>
</g>
<path style="fill:#C86D5C;" d="M428.537,172.537c0,95.293-77.244,172.537-172.537,172.537S83.464,267.83,83.464,172.537
	c0-23.245,4.601-45.425,12.945-65.669c0,0,50.84-31.579,159.592-31.579s159.592,31.579,159.592,31.579
	C423.936,127.113,428.537,149.292,428.537,172.537z"/>
<path style="fill:#FBC4AC;" d="M271.613,129.083c-9.766,5.039-21.46,5.039-31.226,0c-56.744-29.278-135.274-5.664-110.965,86.607
	c26.64,101.118,126.577,96.337,126.577,96.337s99.938,4.782,126.577-96.337C406.887,123.419,328.357,99.805,271.613,129.083z"/>
<g>
	<path style="fill:#3A484A;" d="M182.412,223.612c-4.268,0-7.726-3.459-7.726-7.726v-14.309c0-4.267,3.458-7.726,7.726-7.726
		s7.726,3.459,7.726,7.726v14.309C190.138,220.153,186.679,223.612,182.412,223.612z"/>
	<path style="fill:#3A484A;" d="M329.589,223.612c-4.268,0-7.726-3.459-7.726-7.726v-14.309c0-4.267,3.458-7.726,7.726-7.726
		s7.726,3.459,7.726,7.726v14.309C337.316,220.153,333.857,223.612,329.589,223.612z"/>
	<path style="fill:#3A484A;" d="M281.394,225.068c-3.214-2.809-8.094-2.482-10.902,0.73c-1.029,1.176-2.61,1.851-4.338,1.851
		c-1.728,0-3.308-0.675-4.336-1.85c-1.447-1.656-3.623-2.637-5.823-2.634c-2.197,0.004-4.362,0.977-5.81,2.633
		c-1.029,1.176-2.61,1.851-4.338,1.851s-3.309-0.675-4.338-1.851c-2.808-3.212-7.689-3.54-10.902-0.73
		c-3.211,2.809-3.539,7.69-0.729,10.902c3.963,4.533,9.784,7.132,15.97,7.132c3.609,0,7.09-0.89,10.153-2.527
		c3.064,1.637,6.545,2.527,10.153,2.527c6.186,0,12.007-2.599,15.97-7.132C284.932,232.758,284.606,227.876,281.394,225.068z"/>
</g>
<g>
</g>
<g>
</g>
<g>
</g>
<g>
</g>
<g>
</g>
<g>
</g>
<g>
</g>
<g>
</g>
<g>
</g>
<g>
</g>
<g>
</g>
<g>
</g>
<g>
</g>
<g>
</g>
<g>
</g>
</svg>
